<svg width="728" height="90" viewBox="0 0 728 90" xmlns="http://www.w3.org/2000/svg">
  <defs>
    <linearGradient id="bg3" x1="0%" y1="0%" x2="100%" y2="0%">
      <stop offset="0%" style="stop-color:#18181B"/>
      <stop offset="100%" style="stop-color:#27272A"/>
    </linearGradient>
  </defs>
  <rect width="728" height="90" fill="url(#bg3)"/>
  <rect x="0" y="0" width="4" height="90" fill="#F59E0B"/>
  <circle cx="700" cy="50" r="80" fill="rgba(245,158,11,0.06)"/>
  <circle cx="650" cy="-10" r="50" fill="rgba(245,158,11,0.04)"/>
  <rect x="30" y="25" width="40" height="40" rx="8" fill="#F59E0B"/>
  <text x="50" y="52" text-anchor="middle" fill="#18181B" font-family="system-ui, sans-serif" font-size="18" font-weight="700">B</text>
  <text x="90" y="38" fill="#FFFFFF" font-family="system-ui, sans-serif" font-size="18" font-weight="700">기존 사이트에 기능 추가</text>
  <text x="90" y="60" fill="#F59E0B" font-family="system-ui, sans-serif" font-size="14" font-weight="500">BuildOn</text>
  <text x="155" y="60" fill="rgba(255,255,255,0.6)" font-family="system-ui, sans-serif" font-size="14">- 코드 한 줄로 끝</text>
  <rect x="350" y="30" width="60" height="24" rx="12" fill="rgba(245,158,11,0.15)"/>
  <text x="380" y="46" text-anchor="middle" fill="#F59E0B" font-family="system-ui, sans-serif" font-size="11">게시판</text>
  <rect x="420" y="30" width="60" height="24" rx="12" fill="rgba(245,158,11,0.15)"/>
  <text x="450" y="46" text-anchor="middle" fill="#F59E0B" font-family="system-ui, sans-serif" font-size="11">문의폼</text>
  <rect x="490" y="30" width="50" height="24" rx="12" fill="rgba(245,158,11,0.15)"/>
  <text x="515" y="46" text-anchor="middle" fill="#F59E0B" font-family="system-ui, sans-serif" font-size="11">팝업</text>
  <rect x="550" y="30" width="50" height="24" rx="12" fill="rgba(245,158,11,0.15)"/>
  <text x="575" y="46" text-anchor="middle" fill="#F59E0B" font-family="system-ui, sans-serif" font-size="11">SNS</text>
  <rect x="620" y="28" width="90" height="34" rx="17" fill="#F59E0B"/>
  <text x="665" y="50" text-anchor="middle" fill="#18181B" font-family="system-ui, sans-serif" font-size="12" font-weight="600">시작하기 →</text>
</svg>
